<svg xmlns="http://www.w3.org/2000/svg" version="1.1" xmlns:xlink="http://www.w3.org/1999/xlink" width="156" height="173"><svg width="156" height="173" viewBox="0 0 156 173" fill="none" xmlns="http://www.w3.org/2000/svg">
<path d="M128.197 8.54803C129.019 9.70077 129.381 11.1661 130.037 12.4459C132.973 18.2389 140.793 19.2647 147.273 18.7078C149.768 18.4929 152.675 18.3073 154.349 20.1634C155.367 21.2966 155.621 22.9085 155.641 24.4227C155.709 31.9156 150.767 38.8418 144.336 42.6908C137.896 46.5398 130.174 47.7121 122.677 47.7317C116.139 47.7512 109.003 47.126 103.699 50.9457C99.1964 54.189 97.1997 60.7733 99.7934 65.6676C103.464 72.6134 112.918 73.141 120.553 75.0166C136.761 79.0024 149.563 93.4117 152.724 109.775C155.886 126.138 149.798 143.703 138.014 155.504C126.229 167.305 109.248 173.381 92.5604 173C76.6753 172.629 61.3579 166.807 45.5021 165.732C35.9985 165.087 26.4067 166.162 17.1771 168.565C13.6634 169.483 4.1989 173.518 1.87926 169.356C-0.861241 164.442 0.0587839 155.142 0.606884 149.779C1.55627 140.499 4.75678 131.179 11.197 124.428C22.7462 112.354 41.3229 111.357 56.425 116.164C64.5486 118.743 72.1144 122.885 79.1907 127.642C82.9785 130.192 87.1577 133.836 91.846 131.785C96.1916 129.88 99.353 125.044 98.4427 120.394C97.7185 116.711 94.7235 113.839 91.3762 112.129C88.0288 110.429 84.2998 109.667 80.6882 108.632C65.8504 104.382 52.0989 94.3691 46.2558 80.1063C42.194 70.1809 42.2429 58.7316 45.9524 48.6695C49.8576 38.0603 57.1297 31.1731 65.6644 24.2469C63.9712 21.0524 61.0545 18.6688 59.6842 15.0054C58.2944 11.2736 57.8344 7.19013 58.5097 3.2532C58.6859 2.22745 59.0089 1.10401 59.8996 0.566716C60.4868 0.21503 61.2013 0.185723 61.8864 0.166185C82.3325 -0.380881 103.787 0.371335 123.567 5.94946C125.104 6.3793 126.709 6.89706 127.795 8.05957C127.942 8.21588 128.079 8.38195 128.207 8.55779L128.197 8.54803Z" fill="#7F22FE"></path>
</svg><style>@media (prefers-color-scheme: light) { :root { filter: none; } }
@media (prefers-color-scheme: dark) { :root { filter: none; } }
</style></svg>